<?xml version="1.0" encoding="utf-8"?>
<!-- Generator: Adobe Illustrator 19.0.0, SVG Export Plug-In . SVG Version: 6.00 Build 0)  -->
<svg version="1.1" xmlns="http://www.w3.org/2000/svg" xmlns:xlink="http://www.w3.org/1999/xlink" x="0px" y="0px"
	 viewBox="0 0 841.9 595.3" style="enable-background:new 0 0 841.9 595.3;" xml:space="preserve">
<style type="text/css">
	.st0{fill:#FAE397;}
	.st1{fill:#F89847;}
	.st2{fill:#3C4138;}
</style>
<g id="Layer_1">
	<polygon id="XMLID_5_" class="st0" points="254.3,189.3 148.6,406 358.8,406 	"/>
	<polygon id="XMLID_6_" class="st1" points="218.5,286.8 166,394.5 270.5,394.5 	"/>
	<g id="XMLID_12_">
		<polygon id="XMLID_7_" class="st2" points="283.8,210.5 283.8,394.5 300,394.5 300,307 334.8,394.5 353.2,394.5 314.5,296.5 
			353.2,210.5 334.8,210.5 299.8,289.8 299.8,210.5 		"/>
		<rect id="XMLID_2_" x="358.8" y="266.7" class="st2" width="16.3" height="127.8"/>
		<path id="XMLID_8_" class="st2" d="M392.7,268.6v125.5H409l0.2-93.8c0,0,1.4-18.2,17.8-19.7c0,0,15.1-0.6,13.3,19.8
			c0,4.6,0.4,93.6,0.4,93.6l16.2,0c0,0,0-95.3,0.2-96.5c0.2-1.2,1.3-27.7-23.3-30.1c-13.4-1-24.7,10.3-24.7,10.3l-0.1-9.3
			L392.7,268.6z"/>
		<path id="XMLID_15_" class="st2" d="M534.9,393.5l0-200.6h-14.7l0,88.4c-4.9-11.1-9-11.5-13.9-13.5c-9.9-2.2-17.3,0.1-23.2,5.3
			c-10,12.3-12.4,27.9-12.7,46.2c-1,18.7,0.2,37.5,5.2,55.3c3.2,13.1,10.7,18.5,20.5,19.7c10.8,0.2,19.5-3.1,24.2-12.8l-0.1,12.1
			H534.9z M502.6,381.5c-12.6-0.8-17.9-19.3-17.4-50c0-32.7,6.3-50.7,17.4-50c14.5-0.5,18.5,18,17.4,50
			C520.9,363.3,517.3,381.6,502.6,381.5z"/>
		<rect id="XMLID_10_" x="549.8" y="192.8" class="st2" width="14.8" height="202.4"/>
		<path id="XMLID_19_" class="st2" d="M639,275.8c-5.5-7.4-12.5-10.9-21.6-11c-9.5-0.7-17.5,3.1-22.9,11.9
			c-7.6,12.1-11.7,28.5-11.8,48.8c-0.2,19.2,2.2,32.4,5.4,43.8c6,16.4,15.5,26,30.1,25.8c10.8-0.1,19.3-4.4,24.3-15.4
			c4.3-10.4,6.6-20.8,7.1-31.4l-16.6-0.1c0.2,22.4-5.5,31.7-15.5,31.4c-11.4-0.7-19.1-17.6-19.6-46.9l51.7,0.1
			C651.1,310.6,648.3,291.2,639,275.8z M633,319.3h-35.3c0.5-22.8,7.3-39.4,18.7-39C630.3,281.7,634.7,297.3,633,319.3z"/>
		<circle id="XMLID_11_" class="st2" cx="367" cy="233.6" r="11.7"/>
	</g>
</g>
<g id="Layer_2">
</g>
</svg>
